<svg xmlns="http://www.w3.org/2000/svg" xmlns:xlink="http://www.w3.org/1999/xlink" width="500" zoomAndPan="magnify" viewBox="0 0 375 93.749996" height="125" preserveAspectRatio="xMidYMid meet" version="1.0"><defs><g/></defs><g fill="#000000" fill-opacity="1"><g transform="translate(0.393811, 66.27272)"><g><path d="M 18.046875 0.625 C 14.867188 0.625 11.742188 0.265625 8.671875 -0.453125 C 5.597656 -1.171875 3.128906 -2.113281 1.265625 -3.28125 L 5.25 -12.375 C 6.96875 -11.300781 9.015625 -10.445312 11.390625 -9.8125 C 13.773438 -9.1875 16.132812 -8.875 18.46875 -8.875 C 20.613281 -8.875 22.140625 -9.09375 23.046875 -9.53125 C 23.953125 -9.976562 24.40625 -10.625 24.40625 -11.46875 C 24.40625 -12.3125 23.859375 -12.90625 22.765625 -13.25 C 21.671875 -13.601562 19.929688 -13.941406 17.546875 -14.265625 C 14.523438 -14.640625 11.953125 -15.128906 9.828125 -15.734375 C 7.703125 -16.335938 5.867188 -17.457031 4.328125 -19.09375 C 2.796875 -20.726562 2.03125 -23.015625 2.03125 -25.953125 C 2.03125 -28.367188 2.75 -30.519531 4.1875 -32.40625 C 5.632812 -34.300781 7.742188 -35.796875 10.515625 -36.890625 C 13.296875 -37.984375 16.617188 -38.53125 20.484375 -38.53125 C 23.242188 -38.53125 25.972656 -38.25 28.671875 -37.6875 C 31.378906 -37.132812 33.640625 -36.34375 35.453125 -35.3125 L 31.46875 -26.296875 C 28.113281 -28.160156 24.476562 -29.09375 20.5625 -29.09375 C 18.46875 -29.09375 16.929688 -28.847656 15.953125 -28.359375 C 14.972656 -27.867188 14.484375 -27.226562 14.484375 -26.4375 C 14.484375 -25.550781 15.015625 -24.929688 16.078125 -24.578125 C 17.148438 -24.234375 18.925781 -23.875 21.40625 -23.5 C 24.53125 -23.03125 27.113281 -22.492188 29.15625 -21.890625 C 31.207031 -21.285156 32.988281 -20.175781 34.5 -18.5625 C 36.019531 -16.957031 36.78125 -14.707031 36.78125 -11.8125 C 36.78125 -9.4375 36.054688 -7.304688 34.609375 -5.421875 C 33.171875 -3.535156 31.039062 -2.054688 28.21875 -0.984375 C 25.394531 0.0859375 22.003906 0.625 18.046875 0.625 Z M 18.046875 0.625 "/></g></g></g><g fill="#000000" fill-opacity="1"><g transform="translate(33.333734, 66.27272)"><g><path d="M 30.421875 -1.53125 C 29.304688 -0.832031 27.941406 -0.300781 26.328125 0.0625 C 24.722656 0.4375 23.007812 0.625 21.1875 0.625 C 16.25 0.625 12.453125 -0.582031 9.796875 -3 C 7.140625 -5.425781 5.8125 -9.039062 5.8125 -13.84375 L 5.8125 -26.578125 L 0.28125 -26.578125 L 0.28125 -36.5 L 5.8125 -36.5 L 5.8125 -46.375 L 19.09375 -46.375 L 19.09375 -36.5 L 27.765625 -36.5 L 27.765625 -26.578125 L 19.09375 -26.578125 L 19.09375 -13.984375 C 19.09375 -12.628906 19.453125 -11.566406 20.171875 -10.796875 C 20.898438 -10.035156 21.867188 -9.65625 23.078125 -9.65625 C 24.617188 -9.65625 25.972656 -10.050781 27.140625 -10.84375 Z M 30.421875 -1.53125 "/></g></g></g><g fill="#000000" fill-opacity="1"><g transform="translate(59.280034, 66.27272)"><g><path d="M 20.421875 -38.53125 C 26.710938 -38.53125 31.515625 -37.097656 34.828125 -34.234375 C 38.140625 -31.367188 39.796875 -26.972656 39.796875 -21.046875 L 39.796875 0 L 27.421875 0 L 27.421875 -4.890625 C 25.503906 -1.210938 21.769531 0.625 16.21875 0.625 C 13.28125 0.625 10.738281 0.113281 8.59375 -0.90625 C 6.457031 -1.9375 4.835938 -3.320312 3.734375 -5.0625 C 2.640625 -6.8125 2.09375 -8.804688 2.09375 -11.046875 C 2.09375 -14.640625 3.46875 -17.425781 6.21875 -19.40625 C 8.96875 -21.382812 13.210938 -22.375 18.953125 -22.375 L 26.5 -22.375 C 26.269531 -26.382812 23.59375 -28.390625 18.46875 -28.390625 C 16.644531 -28.390625 14.800781 -28.097656 12.9375 -27.515625 C 11.070312 -26.929688 9.488281 -26.128906 8.1875 -25.109375 L 3.703125 -34.125 C 5.804688 -35.53125 8.359375 -36.613281 11.359375 -37.375 C 14.367188 -38.144531 17.390625 -38.53125 20.421875 -38.53125 Z M 19.9375 -7.765625 C 21.46875 -7.765625 22.816406 -8.132812 23.984375 -8.875 C 25.148438 -9.625 25.988281 -10.722656 26.5 -12.171875 L 26.5 -15.453125 L 20.765625 -15.453125 C 16.898438 -15.453125 14.96875 -14.171875 14.96875 -11.609375 C 14.96875 -10.441406 15.410156 -9.507812 16.296875 -8.8125 C 17.179688 -8.113281 18.394531 -7.765625 19.9375 -7.765625 Z M 19.9375 -7.765625 "/></g></g></g><g fill="#000000" fill-opacity="1"><g transform="translate(97.884793, 66.27272)"><g><path d="M 45.046875 -37.90625 L 45.046875 -6.921875 C 45.046875 0.117188 43.128906 5.398438 39.296875 8.921875 C 35.472656 12.441406 29.972656 14.203125 22.796875 14.203125 C 19.066406 14.203125 15.566406 13.78125 12.296875 12.9375 C 9.035156 12.09375 6.265625 10.859375 3.984375 9.234375 L 8.8125 -0.0625 C 10.351562 1.1875 12.300781 2.171875 14.65625 2.890625 C 17.007812 3.617188 19.328125 3.984375 21.609375 3.984375 C 25.109375 3.984375 27.671875 3.210938 29.296875 1.671875 C 30.929688 0.140625 31.75 -2.140625 31.75 -5.171875 L 31.75 -6.4375 C 29.1875 -3.445312 25.429688 -1.953125 20.484375 -1.953125 C 17.128906 -1.953125 14.03125 -2.707031 11.1875 -4.21875 C 8.34375 -5.738281 6.082031 -7.882812 4.40625 -10.65625 C 2.726562 -13.4375 1.890625 -16.644531 1.890625 -20.28125 C 1.890625 -23.875 2.726562 -27.054688 4.40625 -29.828125 C 6.082031 -32.597656 8.34375 -34.738281 11.1875 -36.25 C 14.03125 -37.769531 17.128906 -38.53125 20.484375 -38.53125 C 25.898438 -38.53125 29.863281 -36.785156 32.375 -33.296875 L 32.375 -37.90625 Z M 23.640625 -12.515625 C 26.015625 -12.515625 27.984375 -13.238281 29.546875 -14.6875 C 31.109375 -16.132812 31.890625 -18 31.890625 -20.28125 C 31.890625 -22.5625 31.117188 -24.410156 29.578125 -25.828125 C 28.046875 -27.253906 26.066406 -27.96875 23.640625 -27.96875 C 21.210938 -27.96875 19.21875 -27.253906 17.65625 -25.828125 C 16.09375 -24.410156 15.3125 -22.5625 15.3125 -20.28125 C 15.3125 -18 16.101562 -16.132812 17.6875 -14.6875 C 19.28125 -13.238281 21.265625 -12.515625 23.640625 -12.515625 Z M 23.640625 -12.515625 "/></g></g></g><g fill="#000000" fill-opacity="1"><g transform="translate(141.874635, 66.27272)"><g><path d="M 43.015625 -18.890625 C 43.015625 -18.796875 42.941406 -17.695312 42.796875 -15.59375 L 15.25 -15.59375 C 15.800781 -13.632812 16.878906 -12.128906 18.484375 -11.078125 C 20.097656 -10.035156 22.117188 -9.515625 24.546875 -9.515625 C 26.367188 -9.515625 27.941406 -9.769531 29.265625 -10.28125 C 30.597656 -10.789062 31.941406 -11.628906 33.296875 -12.796875 L 40.28125 -5.53125 C 36.601562 -1.425781 31.21875 0.625 24.125 0.625 C 19.695312 0.625 15.800781 -0.210938 12.4375 -1.890625 C 9.082031 -3.566406 6.484375 -5.894531 4.640625 -8.875 C 2.804688 -11.863281 1.890625 -15.242188 1.890625 -19.015625 C 1.890625 -22.753906 2.785156 -26.101562 4.578125 -29.0625 C 6.378906 -32.019531 8.863281 -34.335938 12.03125 -36.015625 C 15.195312 -37.691406 18.765625 -38.53125 22.734375 -38.53125 C 26.503906 -38.53125 29.925781 -37.75 33 -36.1875 C 36.082031 -34.625 38.519531 -32.363281 40.3125 -29.40625 C 42.113281 -26.445312 43.015625 -22.941406 43.015625 -18.890625 Z M 22.796875 -29.09375 C 20.742188 -29.09375 19.03125 -28.507812 17.65625 -27.34375 C 16.28125 -26.175781 15.40625 -24.59375 15.03125 -22.59375 L 30.5625 -22.59375 C 30.1875 -24.59375 29.3125 -26.175781 27.9375 -27.34375 C 26.5625 -28.507812 24.847656 -29.09375 22.796875 -29.09375 Z M 22.796875 -29.09375 "/></g></g></g><g fill="#000000" fill-opacity="1"><g transform="translate(181.458489, 66.27272)"><g><path d="M 18.046875 0.625 C 14.867188 0.625 11.742188 0.265625 8.671875 -0.453125 C 5.597656 -1.171875 3.128906 -2.113281 1.265625 -3.28125 L 5.25 -12.375 C 6.96875 -11.300781 9.015625 -10.445312 11.390625 -9.8125 C 13.773438 -9.1875 16.132812 -8.875 18.46875 -8.875 C 20.613281 -8.875 22.140625 -9.09375 23.046875 -9.53125 C 23.953125 -9.976562 24.40625 -10.625 24.40625 -11.46875 C 24.40625 -12.3125 23.859375 -12.90625 22.765625 -13.25 C 21.671875 -13.601562 19.929688 -13.941406 17.546875 -14.265625 C 14.523438 -14.640625 11.953125 -15.128906 9.828125 -15.734375 C 7.703125 -16.335938 5.867188 -17.457031 4.328125 -19.09375 C 2.796875 -20.726562 2.03125 -23.015625 2.03125 -25.953125 C 2.03125 -28.367188 2.75 -30.519531 4.1875 -32.40625 C 5.632812 -34.300781 7.742188 -35.796875 10.515625 -36.890625 C 13.296875 -37.984375 16.617188 -38.53125 20.484375 -38.53125 C 23.242188 -38.53125 25.972656 -38.25 28.671875 -37.6875 C 31.378906 -37.132812 33.640625 -36.34375 35.453125 -35.3125 L 31.46875 -26.296875 C 28.113281 -28.160156 24.476562 -29.09375 20.5625 -29.09375 C 18.46875 -29.09375 16.929688 -28.847656 15.953125 -28.359375 C 14.972656 -27.867188 14.484375 -27.226562 14.484375 -26.4375 C 14.484375 -25.550781 15.015625 -24.929688 16.078125 -24.578125 C 17.148438 -24.234375 18.925781 -23.875 21.40625 -23.5 C 24.53125 -23.03125 27.113281 -22.492188 29.15625 -21.890625 C 31.207031 -21.285156 32.988281 -20.175781 34.5 -18.5625 C 36.019531 -16.957031 36.78125 -14.707031 36.78125 -11.8125 C 36.78125 -9.4375 36.054688 -7.304688 34.609375 -5.421875 C 33.171875 -3.535156 31.039062 -2.054688 28.21875 -0.984375 C 25.394531 0.0859375 22.003906 0.625 18.046875 0.625 Z M 18.046875 0.625 "/></g></g></g><g fill="#000000" fill-opacity="1"><g transform="translate(214.398422, 66.27272)"><g/></g></g><g fill="#000000" fill-opacity="1"><g transform="translate(229.434693, 66.27272)"><g><path d="M 4.265625 -37.90625 L 17.546875 -37.90625 L 17.546875 0 L 4.265625 0 Z M 10.90625 -42.109375 C 8.476562 -42.109375 6.519531 -42.78125 5.03125 -44.125 C 3.539062 -45.476562 2.796875 -47.160156 2.796875 -49.171875 C 2.796875 -51.171875 3.539062 -52.847656 5.03125 -54.203125 C 6.519531 -55.554688 8.476562 -56.234375 10.90625 -56.234375 C 13.332031 -56.234375 15.289062 -55.59375 16.78125 -54.3125 C 18.269531 -53.03125 19.015625 -51.382812 19.015625 -49.375 C 19.015625 -47.28125 18.269531 -45.546875 16.78125 -44.171875 C 15.289062 -42.796875 13.332031 -42.109375 10.90625 -42.109375 Z M 10.90625 -42.109375 "/></g></g></g><g fill="#000000" fill-opacity="1"><g transform="translate(246.009551, 66.27272)"><g><path d="M 28.953125 -38.53125 C 33.660156 -38.53125 37.445312 -37.128906 40.3125 -34.328125 C 43.1875 -31.535156 44.625 -27.320312 44.625 -21.6875 L 44.625 0 L 31.328125 0 L 31.328125 -19.515625 C 31.328125 -24.691406 29.253906 -27.28125 25.109375 -27.28125 C 22.828125 -27.28125 20.992188 -26.53125 19.609375 -25.03125 C 18.234375 -23.539062 17.546875 -21.304688 17.546875 -18.328125 L 17.546875 0 L 4.265625 0 L 4.265625 -37.90625 L 16.921875 -37.90625 L 16.921875 -33.78125 C 18.410156 -35.320312 20.179688 -36.5 22.234375 -37.3125 C 24.285156 -38.125 26.523438 -38.53125 28.953125 -38.53125 Z M 28.953125 -38.53125 "/></g></g></g><g fill="#000000" fill-opacity="1"><g transform="translate(289.369959, 66.27272)"><g><path d="M 18.75 -36.5 L 27.765625 -36.5 L 27.765625 -26.578125 L 19.09375 -26.578125 L 19.09375 0 L 5.8125 0 L 5.8125 -26.578125 L 0.28125 -26.578125 L 0.28125 -36.5 L 5.8125 -36.5 L 5.8125 -37.484375 C 5.8125 -42.097656 7.195312 -45.753906 9.96875 -48.453125 C 12.738281 -51.160156 16.617188 -52.515625 21.609375 -52.515625 C 23.285156 -52.515625 24.914062 -52.351562 26.5 -52.03125 C 28.09375 -51.707031 29.398438 -51.21875 30.421875 -50.5625 L 27.140625 -41.1875 C 25.828125 -41.9375 24.5 -42.3125 23.15625 -42.3125 C 21.75 -42.3125 20.660156 -41.890625 19.890625 -41.046875 C 19.128906 -40.210938 18.75 -38.976562 18.75 -37.34375 Z M 18.75 -36.5 "/></g></g></g><g fill="#000000" fill-opacity="1"><g transform="translate(312.448878, 66.27272)"><g><path d="M 23.296875 0.625 C 19.234375 0.625 15.566406 -0.210938 12.296875 -1.890625 C 9.035156 -3.566406 6.484375 -5.894531 4.640625 -8.875 C 2.804688 -11.863281 1.890625 -15.242188 1.890625 -19.015625 C 1.890625 -22.753906 2.804688 -26.113281 4.640625 -29.09375 C 6.484375 -32.070312 9.023438 -34.390625 12.265625 -36.046875 C 15.515625 -37.703125 19.191406 -38.53125 23.296875 -38.53125 C 27.390625 -38.53125 31.066406 -37.703125 34.328125 -36.046875 C 37.597656 -34.390625 40.140625 -32.082031 41.953125 -29.125 C 43.773438 -26.164062 44.6875 -22.796875 44.6875 -19.015625 C 44.6875 -15.242188 43.773438 -11.863281 41.953125 -8.875 C 40.140625 -5.894531 37.597656 -3.566406 34.328125 -1.890625 C 31.066406 -0.210938 27.390625 0.625 23.296875 0.625 Z M 23.296875 -9.9375 C 25.617188 -9.9375 27.523438 -10.738281 29.015625 -12.34375 C 30.515625 -13.945312 31.265625 -16.171875 31.265625 -19.015625 C 31.265625 -21.816406 30.515625 -24.007812 29.015625 -25.59375 C 27.523438 -27.175781 25.617188 -27.96875 23.296875 -27.96875 C 20.960938 -27.96875 19.046875 -27.175781 17.546875 -25.59375 C 16.054688 -24.007812 15.3125 -21.816406 15.3125 -19.015625 C 15.3125 -16.171875 16.054688 -13.945312 17.546875 -12.34375 C 19.046875 -10.738281 20.960938 -9.9375 23.296875 -9.9375 Z M 23.296875 -9.9375 "/></g></g></g><g fill="#000000" fill-opacity="1"><g transform="translate(348.840607, 21.208999)"><g><path d="M 3.484375 -8.640625 L 0.0625 -8.640625 L 0.0625 -11.140625 L 10.03125 -11.140625 L 10.03125 -8.640625 L 6.640625 -8.640625 L 6.640625 0 L 3.484375 0 Z M 3.484375 -8.640625 "/></g></g></g><g fill="#000000" fill-opacity="1"><g transform="translate(358.943003, 21.208999)"><g><path d="M 11.171875 0 L 11.140625 -5.90625 L 8.265625 -1.09375 L 6.875 -1.09375 L 4.03125 -5.734375 L 4.03125 0 L 1.109375 0 L 1.109375 -11.140625 L 3.703125 -11.140625 L 7.625 -4.703125 L 11.4375 -11.140625 L 14.03125 -11.140625 L 14.0625 0 Z M 11.171875 0 "/></g></g></g></svg>